# Blender v2.79 (sub 0) OBJ File: ''
# www.blender.org
mtllib Grass.mtl
o Plane
v 0.000000 1.000000 1.000000
v 0.000000 -1.000000 1.000000
v 0.000000 1.000000 -1.000000
v 0.000000 -1.000000 -1.000000
v 0.707107 1.000000 -0.707107
v 0.707107 -1.000000 -0.707107
v -0.707107 1.000000 0.707107
v -0.707107 -1.000000 0.707107
v -1.000000 -1.000000 0.000000
v -1.000000 1.000000 0.000000
v 1.000000 -1.000000 -0.000000
v 1.000000 1.000000 -0.000000
v 0.707107 1.000000 0.707107
v 0.707107 -1.000000 0.707107
v -0.707107 1.000000 -0.707107
v -0.707107 -1.000000 -0.707107
vt 0.000100 0.999900
vt 0.000100 0.000100
vt 0.999900 0.000100
vt 0.999900 0.999900
vt 0.000100 0.999900
vt 0.000100 0.000100
vt 0.999900 0.000100
vt 0.999900 0.999900
vt 0.000100 0.999900
vt 0.000100 0.000100
vt 0.999900 0.000100
vt 0.999900 0.999900
vt 0.000100 0.999900
vt 0.000100 0.000100
vt 0.999900 0.000100
vt 0.999900 0.999900
vn 1.0000 0.0000 0.0000
vn -0.7071 0.0000 -0.7071
vn -0.0000 0.0000 -1.0000
vn 0.7071 0.0000 -0.7071
usemtl Grass_
s off
f 1/1/1 2/2/1 4/3/1 3/4/1
f 5/5/2 6/6/2 8/7/2 7/8/2
f 12/9/3 11/10/3 9/11/3 10/12/3
f 13/13/4 14/14/4 16/15/4 15/16/4
